<svg width="138" height="138" viewBox="0 0 138 138" fill="none" xmlns="http://www.w3.org/2000/svg">
<path d="M5.38975 80.2125C11.6429 115.359 45.0647 138.863 80.4272 132.609C115.574 126.356 139.077 92.9344 132.824 57.5719C126.571 22.6407 92.9335 -0.862462 57.7866 5.39066C22.6397 11.4282 -0.863379 45.0657 5.38975 80.2125Z" fill="#FFDD67"/>
<path d="M91.4257 64.0405C97.38 64.0405 102.207 59.2136 102.207 53.2593C102.207 47.305 97.38 42.478 91.4257 42.478C85.4714 42.478 80.6445 47.305 80.6445 53.2593C80.6445 59.2136 85.4714 64.0405 91.4257 64.0405Z" fill="#664E27"/>
<path d="M42.4785 72.6655C48.4328 72.6655 53.2597 67.8386 53.2597 61.8843C53.2597 55.93 48.4328 51.103 42.4785 51.103C36.5242 51.103 31.6972 55.93 31.6972 61.8843C31.6972 67.8386 36.5242 72.6655 42.4785 72.6655Z" fill="#664E27"/>
<path d="M93.3663 90.1312C80.86 86.8969 67.4913 89.2687 56.9257 96.6C54.3382 98.5406 59.2975 105.225 61.885 103.5C68.785 98.5406 79.9975 95.3062 91.4257 98.325C94.2288 98.9719 96.6007 91.2094 93.3663 90.1312" fill="#664E27"/>
</svg>
